<svg xmlns="http://www.w3.org/2000/svg" width="123" height="25" viewBox="0 0 123 25" fill="none">
  <path d="M10.3664 4.52189C8.93741 4.52189 8.52426 5.15568 8.52426 6.55355V8.87249H12.3358L11.9538 12.6189H8.52574V23.9885H3.95155V12.6189H0.869995V8.87249H3.95155V6.61723C3.95155 2.83822 5.47529 0.8421 9.72668 0.8421C10.6175 0.840027 11.5078 0.89289 12.3921 1.00054V4.52634L10.3664 4.52189Z" fill="#303C58"/>
  <path d="M12.653 15.9533C12.653 11.7301 14.6536 8.54932 18.8457 8.54932C21.1321 8.54932 22.5285 9.72507 23.1963 11.1851V8.87213H27.578V23.9882H23.1963V21.7018C22.5611 23.1634 21.1321 24.3065 18.8457 24.3065C14.6536 24.3065 12.653 21.1302 12.653 16.9025V15.9533ZM17.2257 16.9706C17.2257 19.2244 18.0505 20.7171 20.1785 20.7171C22.0532 20.7171 23.0053 19.3518 23.0053 17.1928V15.6749C23.0053 13.5159 22.0532 12.1506 20.1785 12.1506C18.0505 12.1506 17.2257 13.6433 17.2257 15.8971V16.9706Z" fill="#303C58"/>
  <path d="M37.105 8.55371C38.8819 8.55371 40.5656 8.93576 41.4866 9.56954L40.4708 12.8095C39.5181 12.3558 38.4771 12.1171 37.4218 12.1106C34.9445 12.1106 33.8679 13.5396 33.8679 15.9859V16.8743C33.8679 19.3206 34.9474 20.7496 37.4218 20.7496C38.4771 20.7429 39.5181 20.5044 40.4708 20.0507L41.4866 23.2892C40.5656 23.9244 38.8834 24.3065 37.105 24.3065C31.737 24.3065 29.2922 21.416 29.2922 16.7796V16.0806C29.2922 11.4442 31.737 8.55371 37.105 8.55371Z" fill="#303C58"/>
  <path d="M42.0895 17.0077V15.675C42.0895 11.3881 44.5343 8.56714 49.5217 8.56714C54.2218 8.56714 56.286 11.4251 56.286 15.6172V18.031H46.6608C46.757 20.0952 47.6781 21.0162 50.2147 21.0162C51.931 21.0162 53.7405 20.6668 55.0747 20.0952L55.9114 23.2271C54.7045 23.8638 52.2271 24.3392 50.037 24.3392C44.2486 24.3377 42.0895 21.4501 42.0895 17.0077ZM46.6623 15.0382H52.1886V14.6577C52.1886 13.0066 51.5223 11.6961 49.5232 11.6961C47.4575 11.6976 46.6623 13.0007 46.6623 15.0323V15.0382Z" fill="#303C58"/>
  <path d="M73.2368 16.907C73.2368 21.1302 71.2051 24.311 67.0174 24.311C64.7311 24.311 63.1437 23.1678 62.5084 21.7063V23.9926H58.1904V1.28157L62.7631 0.866943V10.966C63.4294 9.6333 64.891 8.55231 67.0189 8.55231C71.2111 8.55231 73.2383 11.7286 73.2383 15.9563L73.2368 16.907ZM68.6641 15.8586C68.6641 13.7307 67.8393 12.1433 65.6477 12.1433C63.773 12.1433 62.7572 13.476 62.7572 15.6365V17.2239C62.7572 19.3829 63.773 20.7171 65.6477 20.7171C67.8393 20.7171 68.6641 19.1297 68.6641 17.0018V15.8586Z" fill="#303C58"/>
  <path d="M74.7668 16.8107V16.0495C74.7668 11.6975 77.2442 8.55371 82.2938 8.55371C87.3433 8.55371 89.8222 11.6975 89.8222 16.0495V16.8107C89.8222 21.1613 87.3448 24.3065 82.2952 24.3065C77.2457 24.3065 74.7668 21.1613 74.7668 16.8107ZM85.248 15.7312C85.248 13.7306 84.4217 12.1432 82.2864 12.1432C80.151 12.1432 79.3322 13.7306 79.3322 15.7312V17.129C79.3322 19.1296 80.1585 20.717 82.2864 20.717C84.4143 20.717 85.248 19.1296 85.248 17.129V15.7312Z" fill="#303C58"/>
  <path d="M91.3425 16.8109V16.0498C91.3425 11.6977 93.8199 8.55396 98.8695 8.55396C103.919 8.55396 106.396 11.6977 106.396 16.0498V16.8109C106.396 21.1615 103.919 24.3067 98.8695 24.3067C93.8199 24.3067 91.3425 21.1615 91.3425 16.8109ZM101.824 15.7314C101.824 13.7308 100.997 12.1434 98.8695 12.1434C96.7415 12.1434 95.9167 13.7308 95.9167 15.7314V17.1293C95.9167 19.1299 96.7415 20.7173 98.8695 20.7173C100.997 20.7173 101.824 19.1299 101.824 17.1293V15.7314Z" fill="#303C58"/>
  <path d="M112.684 16.0807L117.193 8.87216H122.051L117.32 16.3354L122.242 23.9882H117.384L112.684 16.5842V23.9882H108.11V1.28157L112.684 0.866943V16.0807Z" fill="#303C58"/>
</svg>