<svg width="154" height="35" viewBox="0 0 154 35" fill="none" xmlns="http://www.w3.org/2000/svg">
<g clip-path="url(#clip0_439_1476)">
<path d="M18.8859 2.20386C14.7176 2.20386 14.1945 2.2215 12.5574 2.29359C10.9235 2.366 9.8082 2.61633 8.83232 2.98363C7.82287 3.36299 6.96658 3.87046 6.11349 4.69634C5.25975 5.5219 4.73536 6.35056 4.34207 7.32713C3.96157 8.27183 3.70257 9.35144 3.62903 10.932C3.55581 12.5163 3.53662 13.0229 3.53662 17.0566C3.53662 21.0904 3.55517 21.5951 3.62935 23.1793C3.70449 24.7605 3.96317 25.8398 4.34239 26.7842C4.73472 27.7611 5.25911 28.5898 6.11253 29.4153C6.9653 30.2415 7.82159 30.7502 8.8304 31.1296C9.80692 31.4969 10.9225 31.7472 12.5561 31.8196C14.1933 31.8917 14.716 31.9094 18.884 31.9094C23.0526 31.9094 23.5741 31.8917 25.2112 31.8196C26.8451 31.7472 27.9617 31.4969 28.9382 31.1296C29.9473 30.7502 30.8024 30.2415 31.6551 29.4153C32.5089 28.5898 33.0332 27.7611 33.4265 26.7845C33.8038 25.8398 34.0628 24.7602 34.1396 23.1797C34.2131 21.5954 34.2323 21.0904 34.2323 17.0566C34.2323 13.0229 34.2131 12.5166 34.1396 10.9323C34.0628 9.35113 33.8038 8.27183 33.4265 7.32744C33.0332 6.35056 32.5089 5.5219 31.6551 4.69634C30.8014 3.87015 29.9477 3.36268 28.9372 2.98363C27.9588 2.61633 26.8429 2.366 25.209 2.29359C23.5718 2.2215 23.0506 2.20386 18.8811 2.20386H18.8859ZM17.5091 4.88045C17.9177 4.87983 18.3737 4.88045 18.8859 4.88045C22.9838 4.88045 23.4695 4.89468 25.0878 4.96585C26.5842 5.03207 27.3964 5.27405 27.9374 5.47734C28.6536 5.74655 29.1643 6.06836 29.7011 6.5882C30.2383 7.10805 30.5708 7.60314 30.8497 8.29627C31.0597 8.81921 31.3101 9.60517 31.3782 11.0533C31.4518 12.619 31.4677 13.0894 31.4677 17.0532C31.4677 21.017 31.4518 21.4874 31.3782 23.0531C31.3098 24.5012 31.0597 25.2872 30.8497 25.8101C30.5715 26.5033 30.2383 26.9968 29.7011 27.5164C29.164 28.0362 28.6539 28.358 27.9374 28.6272C27.397 28.8314 26.5842 29.0728 25.0878 29.139C23.4698 29.2102 22.9838 29.2257 18.8859 29.2257C14.7877 29.2257 14.302 29.2102 12.684 29.139C11.1876 29.0722 10.3754 28.8302 9.8341 28.6269C9.11786 28.3577 8.60626 28.0359 8.06908 27.516C7.5319 26.9962 7.19936 26.5023 6.92054 25.8089C6.71046 25.286 6.4601 24.5 6.39199 23.0519C6.31845 21.4861 6.30374 21.0158 6.30374 17.0495C6.30374 13.0832 6.31845 12.6153 6.39199 11.0496C6.46042 9.60146 6.71046 8.8155 6.92054 8.29194C7.19872 7.59881 7.5319 7.10372 8.06908 6.58387C8.60626 6.06403 9.11786 5.74222 9.8341 5.47239C10.3751 5.26817 11.1876 5.02681 12.684 4.96028C14.0999 4.89839 14.6486 4.87983 17.5091 4.87673V4.88045ZM27.0785 7.34662C26.0617 7.34662 25.2368 8.14403 25.2368 9.12833C25.2368 10.1123 26.0617 10.9107 27.0785 10.9107C28.0953 10.9107 28.9203 10.1123 28.9203 9.12833C28.9203 8.14434 28.0953 7.346 27.0785 7.346V7.34662ZM18.8859 9.4291C14.5331 9.4291 11.0041 12.8443 11.0041 17.0566C11.0041 21.2689 14.5331 24.6826 18.8859 24.6826C23.2387 24.6826 26.7665 21.2689 26.7665 17.0566C26.7665 12.8443 23.2387 9.4291 18.8859 9.4291ZM18.8859 12.1057C21.7112 12.1057 24.0019 14.3222 24.0019 17.0566C24.0019 19.7908 21.7112 22.0075 18.8859 22.0075C16.0603 22.0075 13.7699 19.7908 13.7699 17.0566C13.7699 14.3222 16.0603 12.1057 18.8859 12.1057Z" fill="#303C58"/>
</g>
<g clip-path="url(#clip1_439_1476)">
<path d="M53.2923 4.36819C51.1422 5.26764 48.7693 7.82035 48.0241 11.0155C47.0732 15.0673 51.0222 16.7805 51.3392 16.2152C51.7161 15.5556 50.6282 15.3328 50.4055 13.2256C50.1228 10.5187 51.3906 7.48627 52.9753 6.15852C53.2666 5.9101 53.258 6.25274 53.258 6.8952C53.258 8.0345 53.198 18.2539 53.198 20.3869C53.198 23.2737 53.0781 24.1817 52.864 25.0897C52.6498 26.0063 52.2986 26.623 52.5641 26.8543C52.8554 27.1199 54.1232 26.486 54.8513 25.4666C55.725 24.2416 56.0334 22.7768 56.0848 21.1835C56.1534 19.2647 56.1448 16.2152 56.1534 14.4762C56.1534 12.8829 56.179 8.21439 56.1277 5.4047C56.1105 4.71084 54.2003 3.99128 53.2923 4.36819ZM129.796 17.877C129.728 19.3761 129.394 20.5496 128.983 21.3805C128.186 22.9824 126.524 23.4792 125.822 21.175C125.436 19.9243 125.419 17.8256 125.693 16.0695C125.976 14.2878 126.755 12.9343 128.058 13.0628C129.342 13.1827 129.933 14.8274 129.796 17.877ZM108.235 27.1884C108.218 29.6811 107.824 31.8655 106.985 32.4994C105.794 33.3988 104.184 32.7221 104.518 30.9061C104.809 29.2957 106.205 27.651 108.235 25.6465C108.235 25.6465 108.244 26.1005 108.235 27.1884ZM107.91 17.8684C107.841 19.239 107.482 20.6096 107.096 21.3805C106.3 22.9824 104.629 23.4792 103.935 21.175C103.464 19.5988 103.575 17.56 103.807 16.2751C104.107 14.6047 104.843 13.0628 106.171 13.0628C107.456 13.0628 108.09 14.4762 107.91 17.8684ZM95.4205 17.8427C95.3434 19.2904 95.0607 20.4982 94.6067 21.3805C93.7844 22.9738 92.1654 23.4792 91.4458 21.175C90.9319 19.5217 91.1032 17.2602 91.3173 16.0353C91.6343 14.2193 92.4309 12.9429 93.6816 13.0628C94.958 13.1913 95.5833 14.8274 95.4205 17.8427ZM152.659 19.5303C152.343 19.5303 152.205 19.8558 152.086 20.3954C151.674 22.28 151.246 22.7083 150.689 22.7083C150.072 22.7083 149.516 21.7746 149.37 19.9072C149.259 18.4338 149.276 15.7355 149.421 13.0371C149.447 12.4803 149.302 11.9407 147.811 11.401C147.169 11.1697 146.243 10.8271 145.781 11.9407C144.479 15.093 143.965 17.5943 143.845 18.6051C143.836 18.6565 143.776 18.6651 143.759 18.5451C143.682 17.7314 143.511 16.2494 143.494 13.1485C143.494 12.5403 143.365 12.0263 142.688 11.6066C142.252 11.3325 140.941 10.8442 140.461 11.4267C140.05 11.8978 139.57 13.1656 139.082 14.6733C138.68 15.8982 138.397 16.7206 138.397 16.7206C138.397 16.7206 138.405 13.4226 138.405 12.1719C138.405 11.7008 138.08 11.5466 137.986 11.5124C137.549 11.3839 136.684 11.1697 136.315 11.1697C135.861 11.1697 135.75 11.4267 135.75 11.795C135.75 11.8464 135.681 16.1381 135.681 19.1448C135.681 19.2733 135.681 19.4189 135.681 19.5731C135.433 20.9522 134.619 22.8282 133.728 22.8282C132.846 22.8282 132.426 22.0401 132.426 18.4681C132.426 16.3779 132.486 15.4699 132.52 13.9623C132.538 13.0885 132.572 12.4204 132.572 12.2747C132.563 11.8122 131.758 11.5723 131.39 11.4867C131.013 11.401 130.687 11.3667 130.43 11.3839C130.071 11.401 129.814 11.6408 129.814 11.9664C129.814 12.1377 129.814 12.4718 129.814 12.4718C129.351 11.7436 128.597 11.2297 128.1 11.084C126.764 10.6814 125.359 11.0412 124.306 12.5146C123.466 13.6882 122.961 15.0159 122.764 16.9261C122.618 18.3224 122.669 19.7358 122.926 20.9351C122.618 22.2886 122.036 22.8368 121.402 22.8368C120.476 22.8368 119.808 21.3291 119.885 18.7336C119.937 17.0204 120.279 15.8211 120.656 14.0822C120.819 13.3455 120.682 12.9515 120.365 12.5831C120.065 12.2405 119.431 12.0691 118.515 12.2833C117.864 12.4375 116.93 12.6003 116.082 12.7287C116.082 12.7287 116.133 12.5232 116.176 12.1634C116.399 10.2703 114.335 10.4245 113.684 11.0241C113.289 11.3839 113.024 11.8122 112.921 12.5746C112.758 13.7909 113.752 14.3649 113.752 14.3649C113.427 15.8554 112.63 17.7999 111.808 19.2047C111.371 19.9586 111.028 20.5154 110.591 21.115C110.591 20.8923 110.591 20.6696 110.591 20.4554C110.583 17.3202 110.625 14.8617 110.643 13.9708C110.66 13.0971 110.694 12.4461 110.694 12.3004C110.685 11.9578 110.488 11.8293 110.077 11.6665C109.709 11.5209 109.281 11.4267 108.835 11.3924C108.27 11.3239 107.927 11.6237 107.936 11.9749C107.936 12.0435 107.936 12.4546 107.936 12.4546C107.473 11.7265 106.719 11.2125 106.222 11.0669C104.886 10.6729 103.481 11.0241 102.428 12.4975C101.588 13.671 101.04 15.3157 100.886 16.8919C100.74 18.3653 100.766 19.6074 100.963 20.661C100.749 21.7146 100.14 22.8197 99.4466 22.8197C98.5643 22.8197 98.0589 22.0316 98.0589 18.4595C98.0589 16.3694 98.1189 15.4613 98.1531 13.9537C98.1703 13.08 98.2045 12.4118 98.2045 12.2662C98.196 11.8036 97.3907 11.5637 97.0224 11.4781C96.6284 11.3839 96.2943 11.3582 96.0373 11.3753C95.6946 11.401 95.4548 11.7094 95.4548 11.9321V12.4632C94.9922 11.7351 94.2384 11.2211 93.7416 11.0755C92.4052 10.6814 91.009 11.0326 89.9468 12.506C89.2529 13.4654 88.6961 14.5276 88.4049 16.8833C88.3192 17.56 88.2849 18.2025 88.2935 18.7936C88.0194 20.4811 86.7944 22.4342 85.8008 22.4342C85.2183 22.4342 84.6615 21.3034 84.6615 18.8878C84.6615 15.6669 84.8585 11.0926 84.8927 10.6472C84.8927 10.6472 86.152 10.63 86.4004 10.6215C87.0257 10.6129 87.5996 10.63 88.4391 10.5872C88.8589 10.5701 89.2615 9.05387 88.8332 8.87398C88.6361 8.78832 87.2484 8.71122 86.6916 8.70266C86.2291 8.69409 84.9356 8.59986 84.9356 8.59986C84.9356 8.59986 85.0555 5.55889 85.0812 5.24194C85.1069 4.97639 84.7557 4.83933 84.5587 4.75367C84.079 4.54808 83.6421 4.45385 83.1281 4.34249C82.4171 4.19687 82.1002 4.34249 82.0402 4.93356C81.946 5.84157 81.8946 8.49707 81.8946 8.49707C81.3721 8.49707 79.5989 8.39428 79.0849 8.39428C78.6052 8.39428 78.0827 10.4673 78.7508 10.493C79.5218 10.5187 80.8581 10.5444 81.7404 10.5786C81.7404 10.5786 81.6976 15.2386 81.6976 16.6692C81.6976 16.8234 81.6976 16.969 81.6976 17.1146C81.2093 19.6587 79.4875 21.0293 79.4875 21.0293C79.8559 19.3504 79.102 18.0826 77.74 17.0118C77.2432 16.6178 76.2495 15.8725 75.1445 15.0502C75.1445 15.0502 75.7869 14.4163 76.3523 13.1485C76.7549 12.249 76.772 11.2211 75.7869 10.9898C74.1594 10.6129 72.8059 11.8122 72.4119 13.0885C72.1035 14.0822 72.2663 14.8189 72.8745 15.5813C72.9173 15.6327 72.9687 15.6926 73.0201 15.7526C72.6517 16.4636 72.1463 17.4144 71.718 18.1597C70.5273 20.2155 69.6279 21.8431 68.9512 21.8431C68.4115 21.8431 68.4115 20.1898 68.4115 18.6394C68.4115 17.3031 68.5057 15.2986 68.5914 13.2256C68.6171 12.5403 68.2744 12.1462 67.7005 11.795C67.3493 11.5809 66.604 11.1526 66.1757 11.1526C65.5247 11.1526 63.6659 11.2382 61.9012 16.3437C61.6785 16.9861 61.2416 18.1597 61.2416 18.1597L61.2759 12.0263C61.2759 11.8807 61.1988 11.7436 61.0275 11.6494C60.7277 11.4867 59.9396 11.1611 59.2286 11.1611C58.8945 11.1611 58.7232 11.3153 58.7232 11.6323L58.6461 21.2263C58.6461 21.9545 58.6632 22.8025 58.7403 23.1794C58.8089 23.5478 58.9288 23.8562 59.0744 24.036C59.22 24.2159 59.3828 24.353 59.6569 24.413C59.9139 24.4644 61.3102 24.6442 61.3873 24.1131C61.4729 23.4707 61.4815 22.7768 62.2096 20.1898C63.3489 16.1638 64.848 14.2021 65.5418 13.5083C65.6618 13.3883 65.8074 13.3798 65.7988 13.5768C65.7646 14.4591 65.6618 16.6606 65.5932 18.5366C65.4048 23.5478 66.3128 24.4815 67.6148 24.4815C68.6085 24.4815 70.0134 23.4878 71.521 20.9865C72.4633 19.4275 73.3713 17.8941 74.0309 16.7891C74.4849 17.2088 74.9989 17.6628 75.5128 18.1511C76.7035 19.2818 77.0976 20.3526 76.832 21.372C76.635 22.1515 75.8897 22.9481 74.562 22.1686C74.1765 21.9373 74.0052 21.766 73.6197 21.509C73.4141 21.372 73.0886 21.3291 72.9001 21.4748C72.4033 21.8517 72.1206 22.3314 71.9579 22.9139C71.8037 23.4878 72.3776 23.7962 72.9687 24.0617C73.4826 24.293 74.5877 24.4986 75.2901 24.5243C78.0313 24.6185 80.2328 23.1966 81.7661 19.5474C82.0402 22.6997 83.2052 24.49 85.2354 24.49C86.5888 24.49 87.9509 22.7426 88.5419 21.0208C88.7132 21.7232 88.9617 22.3314 89.2872 22.8454C90.8462 25.321 93.8786 24.7899 95.3948 22.6826C95.866 22.0316 95.9345 21.8003 95.9345 21.8003C96.1572 23.7791 97.7505 24.4729 98.6671 24.4729C99.695 24.4729 100.749 23.9932 101.485 22.3228C101.571 22.5027 101.665 22.674 101.768 22.8368C103.327 25.3124 106.359 24.7727 107.876 22.674C107.944 22.5798 108.013 22.4856 108.064 22.4085L108.107 23.7105C108.107 23.7105 107.242 24.5072 106.711 24.9955C104.364 27.1456 102.582 28.7817 102.453 30.6748C102.282 33.099 104.252 33.9985 105.734 34.1184C107.31 34.2469 108.664 33.3731 109.495 32.1482C110.223 31.0774 110.703 28.7646 110.668 26.4774C110.651 25.5608 110.634 24.4044 110.617 23.1537C111.439 22.1943 112.364 20.9865 113.221 19.5731C114.155 18.0312 115.148 15.9582 115.662 14.3477C115.662 14.3477 116.527 14.3563 117.453 14.2963C117.752 14.2792 117.838 14.3392 117.778 14.5533C117.71 14.8189 116.613 19.0677 117.615 21.9031C118.301 23.839 119.86 24.4644 120.776 24.4644C121.856 24.4644 122.884 23.6506 123.44 22.4427C123.509 22.5798 123.577 22.7083 123.655 22.8282C125.214 25.3038 128.229 24.7642 129.762 22.6655C130.105 22.1943 130.302 21.7832 130.302 21.7832C130.627 23.839 132.229 24.4729 133.137 24.4729C134.088 24.4729 134.996 24.0789 135.724 22.3485C135.758 23.1109 135.801 23.7362 135.878 23.9332C135.921 24.0532 136.195 24.2074 136.392 24.2759C137.266 24.6014 138.148 24.4472 138.482 24.3787C138.714 24.3359 138.885 24.1474 138.911 23.6763C138.971 22.4342 138.937 20.3526 139.313 18.8107C139.947 16.2152 140.53 15.2044 140.812 14.7075C140.967 14.4248 141.147 14.382 141.155 14.6733C141.172 15.2729 141.198 17.0289 141.438 19.3846C141.618 21.1236 141.858 22.1429 142.037 22.4684C142.56 23.3936 143.211 23.4364 143.742 23.4364C144.076 23.4364 144.779 23.3422 144.719 22.7511C144.684 22.4599 144.744 20.6867 145.361 18.1254C145.764 16.455 146.44 14.9474 146.689 14.3991C146.783 14.1936 146.817 14.3563 146.817 14.3906C146.766 15.5384 146.655 19.299 147.117 21.3548C147.751 24.1388 149.593 24.4558 150.227 24.4558C151.589 24.4558 152.711 23.4193 153.088 20.6781C153.199 20.0442 153.062 19.5303 152.659 19.5303Z" fill="#303C58"/>
</g>
<defs>
<clipPath id="clip0_439_1476">
<rect width="33.976" height="33.975" fill="white" transform="translate(0.974121)"/>
</clipPath>
<clipPath id="clip1_439_1476">
<rect width="105.261" height="29.8616" fill="white" transform="translate(47.8788 4.2644)"/>
</clipPath>
</defs>
</svg>
