<svg xmlns="http://www.w3.org/2000/svg" width="120" height="34" viewBox="0 0 120 34" fill="none">
  <path d="M22.2397 11.5653C24.5066 13.1849 27.2836 14.1378 30.2829 14.1378V8.3692C29.7153 8.36932 29.1491 8.31016 28.5937 8.19256V12.7333C25.5947 12.7333 22.818 11.7803 20.5506 10.1609V21.9329C20.5506 27.8219 15.7742 32.5955 9.88258 32.5955C7.68427 32.5955 5.64104 31.9312 3.94373 30.792C5.88093 32.7717 8.58251 33.9999 11.5713 33.9999C17.4633 33.9999 22.2399 29.2263 22.2399 23.3371V11.5653H22.2397ZM24.3234 5.74545C23.1649 4.48045 22.4043 2.84567 22.2397 1.03835V0.296387H20.639C21.0419 2.59349 22.4162 4.556 24.3234 5.74545ZM7.67018 26.273C7.02292 25.4247 6.67314 24.3871 6.67471 23.3202C6.67471 20.6268 8.85939 18.443 11.5547 18.443C12.057 18.4428 12.5563 18.5197 13.035 18.6715V12.774C12.4756 12.6974 11.911 12.6648 11.3466 12.6768V17.2671C10.8676 17.1153 10.368 17.0382 9.86559 17.0387C7.17027 17.0387 4.98571 19.2223 4.98571 21.916C4.98571 23.8207 6.07769 25.4697 7.67018 26.273Z" fill="#303C58"/>
  <path d="M20.5503 10.1607C22.8178 11.7802 25.5944 12.7332 28.5935 12.7332V8.19244C26.9194 7.83604 25.4374 6.96166 24.3232 5.74545C22.4158 4.55588 21.0417 2.59337 20.6388 0.296387H16.4342V23.3368C16.4247 26.0228 14.2437 28.1978 11.5542 28.1978C9.96931 28.1978 8.56129 27.4427 7.66956 26.273C6.07719 25.4697 4.9852 23.8206 4.9852 21.9161C4.9852 19.2226 7.16977 17.0388 9.86509 17.0388C10.3815 17.0388 10.8792 17.1192 11.3461 17.2672V12.6769C5.558 12.7964 0.902954 17.5234 0.902954 23.3369C0.902954 26.239 2.06217 28.8699 3.94359 30.7921C5.6409 31.9312 7.68413 32.5956 9.88244 32.5956C15.7742 32.5956 20.5504 27.8217 20.5504 21.9329V10.1607H20.5503Z" fill="#303C58"/>
  <path d="M95.8609 27.7684C100.077 27.7684 103.494 24.3784 103.494 20.1969C103.494 16.0157 100.077 12.625 95.8609 12.625H94.7108C98.9267 12.625 102.344 16.0155 102.344 20.1969C102.344 24.3784 98.9267 27.7684 94.7108 27.7684H95.8609Z" fill="#303C58"/>
  <path d="M94.6059 12.625H93.456C89.2403 12.625 85.8221 16.0155 85.8221 20.1969C85.8221 24.3784 89.2403 27.7684 93.456 27.7684H94.6059C90.3897 27.7684 86.972 24.3784 86.972 20.1969C86.9719 16.0157 90.3897 12.625 94.6059 12.625Z" fill="#303C58"/>
  <path d="M36.5729 9.20264V13.0405H41.0684V27.6646H45.5657V13.1442H49.2252L50.4799 9.20276L36.5729 9.20264ZM73.3798 9.20264V13.0405H77.8753V27.6646H82.3726V13.1442H86.032L87.2866 9.20276L73.3798 9.20264ZM51.3172 11.3806C51.3172 10.178 52.2987 9.20264 53.5113 9.20264C54.725 9.20264 55.7076 10.178 55.7076 11.3806C55.7076 12.5833 54.7256 13.5586 53.5113 13.5586C52.2987 13.558 51.3172 12.5833 51.3172 11.3806ZM51.3172 15.1149H55.7076V27.6646H51.3172V15.1149ZM57.5901 9.20264V27.6645H61.9821V22.8939L63.3416 21.6482L67.6281 27.7681H72.3332L66.1634 18.8484L71.7055 13.4544H66.3729L61.9821 17.8104V9.20264H57.5901ZM104.957 9.20264V27.6645H109.35V22.8939L110.709 21.6482L114.996 27.7681H119.702L113.532 18.8484L119.074 13.4544H113.742L109.35 17.8104V9.20264H104.957Z" fill="#303C58"/>
  <path d="M94.7102 27.7684C98.9258 27.7684 102.344 24.3784 102.344 20.1969C102.344 16.0157 98.9258 12.625 94.7102 12.625H94.606C90.3901 12.625 86.9725 16.0155 86.9725 20.1969C86.9725 24.3784 90.3901 27.7684 94.606 27.7684H94.7102ZM90.9459 20.1969C90.9459 18.163 92.6087 16.5154 94.659 16.5154C96.7079 16.5154 98.3705 18.163 98.3705 20.1969C98.3705 22.2309 96.7079 23.8794 94.659 23.8794C92.6087 23.8791 90.9459 22.2309 90.9459 20.1969Z" fill="#303C58"/>
</svg>