<svg width="129" height="25" viewBox="0 0 129 25" fill="none" xmlns="http://www.w3.org/2000/svg">
<g clip-path="url(#clip0_439_1499)">
<path d="M30.2395 2.90904C29.127 3.40255 27.9312 3.73594 26.6764 3.88593C27.9572 3.11815 28.941 1.90237 29.4041 0.453596C28.2053 1.16468 26.8776 1.68086 25.4644 1.95907C24.3328 0.753266 22.7204 0 20.936 0C17.5099 0 14.7319 2.77765 14.7319 6.20379C14.7319 6.69004 14.7868 7.1636 14.8926 7.61764C9.73648 7.35895 5.16517 4.88898 2.10523 1.13549C1.5712 2.05175 1.26517 3.1174 1.26517 4.2544C1.26517 6.40685 2.36045 8.30574 4.02513 9.41825C3.00818 9.38605 2.05155 9.10694 1.21512 8.64231C1.21442 8.66816 1.21442 8.69417 1.21442 8.72033C1.21442 11.7261 3.35296 14.2334 6.19109 14.8038C5.67052 14.9456 5.12243 15.0213 4.55664 15.0213C4.15688 15.0213 3.7683 14.9823 3.3894 14.9101C4.17896 17.3747 6.47005 19.1684 9.18496 19.2183C7.06169 20.8824 4.3867 21.8742 1.47992 21.8742C0.979156 21.8742 0.485345 21.8447 0 21.7874C2.7456 23.5478 6.00663 24.5749 9.51018 24.5749C20.9215 24.5749 27.1619 15.1216 27.1619 6.92304C27.1619 6.65406 27.1559 6.38659 27.1439 6.12033C28.3559 5.2458 29.4077 4.15325 30.2395 2.90904Z" fill="#303C58"/>
</g>
<g clip-path="url(#clip1_439_1499)">
<path d="M45.1267 19.3839C43.41 18.9215 41.8346 17.6173 41.0287 15.9914C40.411 14.7454 40.4118 14.7541 40.4103 9.02735C40.3372 4.07356 40.3651 3.91372 40.6954 3.43596C41.3968 2.2663 42.9434 2.01652 43.9575 2.90914C44.6695 3.53585 44.7261 3.74867 44.7261 5.79925V7.57755H47.7173C49.5469 7.57755 50.8827 7.61491 51.1571 7.67377C52.7181 8.00854 53.3107 9.87525 52.2268 11.0437C52.0991 11.1814 51.836 11.3796 51.6422 11.4842C51.302 11.6677 51.1758 11.6753 48.0079 11.7013L44.7261 11.7282V12.5213C44.7261 13.6747 44.8457 14.0521 45.3811 14.5875C46.0063 15.2127 46.1732 15.2422 49.1042 15.2445C51.3781 15.2462 51.5826 15.2593 51.9506 15.4259C53.3466 16.0578 53.6943 17.7403 52.665 18.8821C52.0633 19.5495 52.0236 19.5562 48.6907 19.5524C46.0894 19.5494 45.6666 19.5294 45.1267 19.3839ZM58.4467 19.4218C57.0913 19.0934 55.6924 18.0636 54.8375 16.7648C54.0496 15.5679 53.896 14.7258 53.8919 11.5802C53.8884 8.86752 53.9429 8.52588 54.4648 7.98856C54.9478 7.49119 55.2556 7.36227 55.9662 7.35962C56.5088 7.35747 56.6458 7.39191 57.0211 7.62392C57.2881 7.78903 57.5539 8.0547 57.719 8.32155C58.0495 8.89438 57.9889 9.13465 58.0297 11.4909C58.0728 14.1728 58.078 14.2362 58.2803 14.5616C58.9637 15.6608 60.3769 15.8228 61.3142 14.9094C61.8554 14.382 61.9062 14.0722 61.9062 11.3024C61.9062 9.02494 61.9165 8.87163 62.0924 8.52115C62.4448 7.819 62.9557 7.44734 63.7108 7.34384C64.5189 7.23307 65.3903 7.70942 65.8079 8.49007C65.9939 8.838 66.0051 8.98081 66.0471 11.5489C66.0321 13.6854 66.1326 14.3106 66.3342 14.6098C66.9789 15.5832 68.3341 15.7926 69.1804 15.0495C69.787 14.517 69.7866 14.5188 69.8365 11.5422C69.8794 8.98719 69.8911 8.8371 70.0758 8.49007C70.8508 7.0335 72.8127 6.94169 73.6657 8.32208C74.2175 9.08701 73.976 10.7057 73.976 11.7495C74.016 13.1231 73.9354 14.8844 73.6952 15.4272C73.0418 17.2715 71.5864 18.7364 69.8355 19.312C69.0413 19.5732 67.2911 19.6359 66.5025 19.4314C65.7423 19.2343 65.0843 18.9323 64.4582 18.4931L63.9326 18.1244L63.4071 18.4931C62.7716 18.9388 62.1283 19.2408 61.4252 19.4233C60.7698 19.5934 59.1515 19.5926 58.4467 19.4218ZM76.7448 19.4346C76.3434 19.2599 75.8422 18.7879 75.6231 18.3786C75.4317 18.0207 75.4301 17.9812 75.4301 13.4805C75.4301 9.14948 75.438 8.92731 75.603 8.59453C76.2891 7.21093 78.0606 6.89952 79.1348 7.97371C79.8028 8.64177 79.801 8.62525 79.7723 13.6228C79.7476 17.9363 79.7436 18.0243 79.5566 18.3702C79.3106 18.8253 78.8638 19.2506 78.4505 19.423C78.0508 19.5897 77.1155 19.5961 76.7448 19.4346ZM85.9903 19.385C84.0319 18.8716 82.3268 17.3244 81.6069 15.4072C81.2183 14.3727 81.1876 13.8456 81.2172 8.7229C81.2445 3.9979 81.2479 3.91564 81.4351 3.56886C82.3683 1.83949 84.9224 2.05841 85.4764 3.91524C85.5699 4.22851 85.606 4.79768 85.606 5.95551V7.56131L87.6985 7.59319C89.6333 7.62268 89.8175 7.63928 90.1433 7.81351C91.6747 8.63228 91.6817 10.6637 90.1559 11.479C89.8138 11.6618 89.6593 11.6759 87.6913 11.7033L85.5916 11.7325L85.6208 12.7607C85.655 13.9605 85.7916 14.3201 86.3869 14.7765C86.9083 15.1761 87.2365 15.2414 88.7337 15.2429C89.935 15.244 90.0958 15.2631 90.5007 15.4517C92.1928 16.2396 92.191 18.6255 90.4977 19.3948C89.9743 19.6325 86.9091 19.6259 85.9903 19.385ZM97.2069 19.3893C94.9882 18.7824 93.1667 16.9186 92.5922 14.6675C92.4509 14.1141 92.4353 13.5555 92.4347 9.03129C92.4682 4.33519 92.2352 4.51882 92.675 3.55233C93.1814 2.59194 94.2265 2.16876 95.333 2.476C95.7944 2.60409 96.5705 3.38026 96.6986 3.84156C96.7519 4.03358 96.7944 4.93505 96.7946 5.8816L96.7952 7.57759H98.5892C100.644 7.57759 101.19 7.65371 101.685 8.00942C102.757 8.77962 102.781 10.5055 101.731 11.2663C101.207 11.6459 100.711 11.7185 98.641 11.7185H96.7952V12.5164C96.7952 13.5674 96.9158 14.0093 97.3317 14.4818C97.8988 15.1261 98.1092 15.1875 99.9301 15.2404C101.515 15.2864 101.525 15.288 101.956 15.5541C102.45 15.8588 102.907 16.5324 102.995 17.0865C103.123 17.8885 102.703 18.7916 101.979 19.2716L101.61 19.5156L99.7093 19.5347C98.0865 19.551 97.7203 19.5297 97.2069 19.3893ZM108.205 19.4291C106.917 19.0813 105.967 18.5097 105.038 17.5222C103.91 16.3227 103.401 15.0006 103.404 13.2765C103.406 12.2234 103.587 11.4001 104.006 10.529C104.449 9.60895 104.935 9.00896 105.651 8.49809C107.736 7.01057 111.441 6.91762 113.775 8.29429C114.611 8.78708 115.479 9.7197 115.903 10.5782C116.759 12.3142 116.672 13.8866 115.693 14.3978C115.355 14.5747 115.197 14.5828 111.619 14.6066L107.896 14.6313V14.8625C107.896 15.2228 108.47 15.7112 109.101 15.8884C109.532 16.0091 110.051 16.0356 111.999 16.036C113.317 16.036 114.513 16.0759 114.69 16.125C116.207 16.5463 116.511 18.555 115.177 19.337C114.744 19.6292 114.483 19.5558 111.721 19.5539C109.431 19.5496 108.533 19.5177 108.205 19.4291ZM112.078 11.6083C111.912 11.0524 111.436 10.7233 110.567 10.5626C109.642 10.3916 108.349 10.7742 108.099 11.2926C107.989 11.5209 107.884 11.7808 107.884 11.7808C107.884 11.7808 108.654 11.8065 110.019 11.8065H112.137L112.078 11.6083ZM118.726 19.39C118.272 19.1433 117.789 18.5704 117.674 18.1427C117.606 17.8926 117.585 16.9145 117.607 15.1201C117.639 12.5066 117.643 12.4566 117.881 11.7436C118.506 9.86552 120.179 8.30779 122.125 7.79146C122.84 7.60165 126.142 7.5107 126.862 7.66097C127.862 7.86963 128.512 8.64147 128.512 9.62064C128.512 10.4557 128.133 11.102 127.422 11.4776C127.087 11.6545 126.895 11.6733 124.988 11.7161C123.011 11.7604 122.903 11.7718 122.585 11.9691C122.167 12.2295 121.861 12.631 121.738 13.084C121.679 13.2966 121.641 14.3472 121.641 15.7319C121.64 18.0267 121.64 18.0274 121.411 18.4869C121.257 18.7972 121.049 19.0387 120.772 19.2302C120.413 19.4793 120.282 19.5167 119.702 19.5375C119.183 19.5561 118.974 19.5245 118.726 19.39ZM76.6367 6.02782C75.238 5.33085 74.9838 3.49008 76.1454 2.47025C76.5978 2.07297 76.9619 1.93896 77.5886 1.93896C78.465 1.93896 79.1458 2.34845 79.5395 3.11236C80.4807 4.93895 78.4813 6.94705 76.6367 6.02782Z" fill="#303C58"/>
</g>
<defs>
<clipPath id="clip0_439_1499">
<rect width="30.2395" height="24.5749" fill="white"/>
</clipPath>
<clipPath id="clip1_439_1499">
<rect width="88.1353" height="17.6305" fill="white" transform="translate(40.3771 1.93896)"/>
</clipPath>
</defs>
</svg>
