<svg width="117" height="27" viewBox="0 0 117 27" fill="none" xmlns="http://www.w3.org/2000/svg">
<path fill-rule="evenodd" clip-rule="evenodd" d="M33.5082 1.42991C35.1092 1.85849 36.3675 3.11668 36.796 4.71772C37.5705 7.61674 37.5737 13.6689 37.5737 13.6689C37.5737 13.6689 37.5737 19.7211 36.796 22.6201C36.3675 24.2211 35.1092 25.4793 33.5082 25.9078C30.6093 26.6854 18.9794 26.6854 18.9794 26.6854C18.9794 26.6854 7.34965 26.6854 4.45062 25.9078C2.84959 25.4793 1.5914 24.2211 1.16282 22.6201C0.385254 19.7211 0.385254 13.6689 0.385254 13.6689C0.385254 13.6689 0.385254 7.61674 1.16282 4.71772C1.5914 3.11668 2.84959 1.85849 4.45062 1.42991C7.34965 0.652344 18.9794 0.652344 18.9794 0.652344C18.9794 0.652344 30.6093 0.652344 33.5082 1.42991ZM24.9184 13.669L15.257 19.2465V8.09127L24.9184 13.669Z" fill="#303C58"/>
<path d="M45.4257 17.5784L41.2501 2.49854H44.8931L46.3564 9.33436C46.7298 11.0181 47.0023 12.4538 47.1798 13.6416H47.2869C47.4094 12.7905 47.685 11.364 48.1105 9.35885L49.6258 2.49854H53.2687L49.041 17.5784V24.8122H45.4227V17.5784H45.4257Z" fill="#303C58"/>
<path d="M54.3646 24.3342C53.63 23.8383 53.1065 23.0668 52.7942 22.0199C52.485 20.973 52.329 19.5832 52.329 17.8443V15.4779C52.329 13.7238 52.5065 12.3126 52.8616 11.2504C53.2167 10.1881 53.7708 9.41053 54.5238 8.92379C55.277 8.43704 56.2657 8.19214 57.4903 8.19214C58.6964 8.19214 59.6607 8.4401 60.3892 8.93603C61.1148 9.43195 61.6474 10.2095 61.9841 11.2626C62.3209 12.3187 62.4893 13.7238 62.4893 15.4779V17.8443C62.4893 19.5832 62.324 20.9791 61.9965 22.0321C61.6689 23.0883 61.1362 23.8598 60.4014 24.3465C59.6668 24.8333 58.6688 25.0781 57.4106 25.0781C56.1126 25.0811 55.0994 24.8302 54.3646 24.3342ZM58.4852 21.7812C58.6872 21.2485 58.7913 20.3822 58.7913 19.176V14.0974C58.7913 12.9279 58.6903 12.0708 58.4852 11.532C58.28 10.9901 57.9219 10.7208 57.4075 10.7208C56.9117 10.7208 56.5596 10.9901 56.3576 11.532C56.1525 12.0738 56.0514 12.9279 56.0514 14.0974V19.176C56.0514 20.3822 56.1493 21.2515 56.3454 21.7812C56.5413 22.3138 56.8932 22.5801 57.4075 22.5801C57.9219 22.5801 58.28 22.3138 58.4852 21.7812Z" fill="#303C58"/>
<path d="M74.3394 24.8153H71.4679L71.1495 22.8193H71.07C70.2893 24.3254 69.1199 25.0785 67.5587 25.0785C66.478 25.0785 65.6791 24.7234 65.1648 24.0163C64.6505 23.306 64.3933 22.1979 64.3933 20.6917V8.51087H68.0638V20.4774C68.0638 21.206 68.1434 21.7233 68.3026 22.0326C68.4618 22.3417 68.7281 22.4978 69.1015 22.4978C69.4199 22.4978 69.7261 22.3999 70.02 22.204C70.3139 22.008 70.5281 21.76 70.672 21.4601V8.50781H74.3394V24.8153Z" fill="#303C58"/>
<path d="M84.3097 5.45229H80.6668V24.8148H77.0759V5.45229H73.433V2.50122H84.3097V5.45229Z" fill="#303C58"/>
<path d="M93.1629 24.8153H90.2914L89.973 22.8193H89.8935C89.1129 24.3254 87.9435 25.0785 86.3822 25.0785C85.3015 25.0785 84.5026 24.7234 83.9883 24.0163C83.474 23.306 83.2168 22.1979 83.2168 20.6917V8.51087H86.8873V20.4774C86.8873 21.206 86.9669 21.7233 87.1261 22.0326C87.2852 22.3417 87.5516 22.4978 87.9251 22.4978C88.2434 22.4978 88.5495 22.3999 88.8435 22.204C89.1374 22.008 89.3516 21.76 89.4955 21.4601V8.50781H93.1629V24.8153Z" fill="#303C58"/>
<path d="M105.31 11.116C105.087 10.0874 104.728 9.34355 104.233 8.88129C103.737 8.41905 103.054 8.18945 102.185 8.18945C101.511 8.18945 100.881 8.37924 100.296 8.7619C99.7111 9.14456 99.258 9.64355 98.9396 10.265H98.9122V1.67505H95.3763V24.8122H98.407L98.7804 23.2693H98.8601C99.1448 23.8203 99.5703 24.2519 100.137 24.5734C100.703 24.8918 101.334 25.051 102.025 25.051C103.265 25.051 104.181 24.4786 104.765 23.3366C105.35 22.1917 105.644 20.407 105.644 17.9764V15.3957C105.644 13.5742 105.531 12.1446 105.31 11.116ZM101.946 17.7681C101.946 18.9559 101.897 19.8866 101.799 20.5601C101.701 21.2335 101.539 21.7142 101.306 21.9958C101.076 22.2804 100.764 22.4213 100.375 22.4213C100.072 22.4213 99.7938 22.3509 99.5366 22.207C99.2795 22.0662 99.0714 21.8519 98.9122 21.5703V12.316C99.0345 11.8722 99.2489 11.5109 99.5519 11.2262C99.852 10.9415 100.183 10.8007 100.535 10.8007C100.908 10.8007 101.196 10.9477 101.398 11.2385C101.603 11.5324 101.744 12.0222 101.823 12.714C101.903 13.4059 101.943 14.3885 101.943 15.665V17.7681H101.946Z" fill="#303C58"/>
<path d="M110.851 18.7078C110.851 19.7548 110.882 20.5385 110.943 21.062C111.004 21.5854 111.133 21.9651 111.329 22.2069C111.524 22.4457 111.824 22.565 112.232 22.565C112.78 22.565 113.159 22.3508 113.361 21.9253C113.566 21.4998 113.677 20.7896 113.695 19.7977L116.86 19.9844C116.879 20.1252 116.888 20.3211 116.888 20.5691C116.888 22.0752 116.474 23.2018 115.651 23.9457C114.828 24.6896 113.661 25.063 112.155 25.063C110.346 25.063 109.078 24.4967 108.353 23.361C107.624 22.2253 107.263 20.4712 107.263 18.0955V15.2486C107.263 12.8026 107.64 11.0149 108.393 9.88832C109.146 8.76176 110.435 8.19849 112.262 8.19849C113.52 8.19849 114.488 8.42809 115.161 8.89034C115.835 9.35259 116.309 10.0689 116.585 11.0455C116.86 12.022 116.998 13.369 116.998 15.0894V17.8813H110.851V18.7078ZM111.316 11.0241C111.129 11.2536 111.007 11.6302 110.943 12.1537C110.882 12.6771 110.851 13.47 110.851 14.5354V15.7048H113.536V14.5354C113.536 13.4884 113.499 12.6955 113.429 12.1537C113.358 11.6118 113.23 11.2322 113.043 11.0087C112.856 10.7883 112.568 10.6751 112.18 10.6751C111.788 10.6781 111.5 10.7945 111.316 11.0241Z" fill="#303C58"/>
</svg>
