<svg xmlns="http://www.w3.org/2000/svg" width="53" height="52" viewBox="0 0 53 52" fill="none">
  <g clip-path="url(#clip0_443_1402)">
    <path d="M22.3476 51.4204C10.0985 49.2285 0.814941 38.6555 0.814941 25.8906C0.814941 11.7074 12.4194 0.102966 26.6026 0.102966C40.7858 0.102966 52.3903 11.7074 52.3903 25.8906C52.3903 38.6555 43.1067 49.2285 30.8576 51.4204L29.4393 50.26H23.766L22.3476 51.4204Z" fill="url(#paint0_linear_443_1402)"/>
    <path d="M36.6599 33.1112L37.8204 25.8907H30.9866V20.8621C30.9866 18.7991 31.7603 17.2518 34.8548 17.2518H38.2072V10.676C36.402 10.4181 34.339 10.1602 32.5339 10.1602C26.6027 10.1602 22.4767 13.7705 22.4767 20.2174V25.8907H16.0298V33.1112H22.4767V51.2916C23.895 51.5494 25.3133 51.6784 26.7317 51.6784C28.15 51.6784 29.5683 51.5494 30.9866 51.2916V33.1112H36.6599Z" fill="white"/>
  </g>
  <defs>
    <linearGradient id="paint0_linear_443_1402" x1="26.6039" y1="49.8847" x2="26.6039" y2="0.0934664" gradientUnits="userSpaceOnUse">
      <stop stop-color="#0062E0"/>
      <stop offset="1" stop-color="#19AFFF"/>
    </linearGradient>
    <clipPath id="clip0_443_1402">
      <rect width="51.5753" height="51.5753" fill="white" transform="translate(0.814941 0.102966)"/>
    </clipPath>
  </defs>
</svg>