<svg xmlns="http://www.w3.org/2000/svg" width="52" height="53" viewBox="0 0 52 53" fill="none">
  <g clip-path="url(#clip0_443_1385)">
    <path d="M10.062 3.1592C8.43013 3.79382 7.05009 4.63997 5.67004 6.02002C4.29 7.38999 3.44384 8.7801 2.80922 10.4019C2.19475 11.9733 1.78174 13.7765 1.66087 16.4157C1.53999 19.0549 1.50977 19.901 1.50977 26.63C1.50977 33.359 1.53999 34.2051 1.66087 36.8443C1.78174 39.4836 2.20482 41.2867 2.80922 42.8581C3.44384 44.49 4.29 45.87 5.67004 47.2501C7.05009 48.6301 8.43013 49.4763 10.062 50.1109C11.6334 50.7254 13.4366 51.1384 16.0758 51.2593C18.715 51.3801 19.5611 51.4104 26.2901 51.4104C33.0191 51.4104 33.8652 51.3801 36.5044 51.2593C39.1436 51.1384 40.9468 50.7153 42.5182 50.1109C44.1501 49.4763 45.5301 48.6301 46.9102 47.2501C48.2902 45.87 49.1364 44.49 49.771 42.8581C50.3855 41.2867 50.7985 39.4836 50.9193 36.8443C51.0402 34.2051 51.0704 33.359 51.0704 26.63C51.0704 19.901 51.0402 19.0549 50.9193 16.4157C50.7985 13.7765 50.3754 11.9733 49.771 10.4019C49.1364 8.7801 48.2902 7.38999 46.9202 6.02002C45.5402 4.63997 44.1602 3.79382 42.5283 3.1592C40.9568 2.54473 39.1537 2.13172 36.5145 2.01084C33.8753 1.88996 33.0292 1.85974 26.3002 1.85974C19.5712 1.85974 18.7251 1.88996 16.0858 2.01084C13.4366 2.12165 11.6334 2.54473 10.062 3.1592ZM36.303 6.46324C38.7206 6.57405 40.0301 6.97698 40.9065 7.31947C42.0649 7.77277 42.8909 8.30666 43.7572 9.17296C44.6235 10.0393 45.1574 10.8653 45.6107 12.0237C45.9532 12.9001 46.3561 14.2096 46.4669 16.6272C46.5878 19.2362 46.608 20.0219 46.608 26.6401C46.608 33.2582 46.5778 34.044 46.4669 36.653C46.3561 39.0705 45.9532 40.3801 45.6107 41.2565C45.1574 42.4149 44.6235 43.2409 43.7572 44.1072C42.8909 44.9735 42.0649 45.5074 40.9065 45.9607C40.0301 46.3032 38.7206 46.7061 36.303 46.8169C33.694 46.9378 32.9083 46.9579 26.2901 46.9579C19.6719 46.9579 18.8862 46.9277 16.2772 46.8169C13.8596 46.7061 12.5501 46.3032 11.6737 45.9607C10.5153 45.5074 9.68929 44.9735 8.82299 44.1072C7.95668 43.2409 7.4228 42.4149 6.9695 41.2565C6.62701 40.3801 6.22407 39.0705 6.11327 36.653C5.99239 34.044 5.97224 33.2582 5.97224 26.6401C5.97224 20.0219 6.00246 19.2362 6.11327 16.6272C6.22407 14.2096 6.62701 12.9001 6.9695 12.0237C7.4228 10.8653 7.95668 10.0393 8.82299 9.17296C9.68929 8.30666 10.5153 7.77277 11.6737 7.31947C12.5501 6.97698 13.8596 6.57405 16.2772 6.46324C18.8862 6.34236 19.6719 6.32222 26.2901 6.32222C32.9083 6.32222 33.694 6.34236 36.303 6.46324Z" fill="url(#paint0_radial_443_1385)"/>
    <path d="M13.5674 26.6398C13.5674 33.671 19.2689 39.3624 26.29 39.3624C33.3111 39.3624 39.0126 33.6609 39.0126 26.6398C39.0126 19.6187 33.3211 13.9172 26.29 13.9172C19.2588 13.9172 13.5674 19.6087 13.5674 26.6398ZM34.5501 26.6398C34.5501 31.203 30.8532 34.8999 26.29 34.8999C21.7268 34.8999 18.0299 31.203 18.0299 26.6398C18.0299 22.0766 21.7268 18.3797 26.29 18.3797C30.8532 18.3797 34.5501 22.0766 34.5501 26.6398Z" fill="url(#paint1_radial_443_1385)"/>
    <path d="M39.5261 16.3852C41.1673 16.3852 42.4977 15.0548 42.4977 13.4136C42.4977 11.7724 41.1673 10.442 39.5261 10.442C37.8849 10.442 36.5544 11.7724 36.5544 13.4136C36.5544 15.0548 37.8849 16.3852 39.5261 16.3852Z" fill="#654C9F"/>
  </g>
  <defs>
    <radialGradient id="paint0_radial_443_1385" cx="0" cy="0" r="1" gradientUnits="userSpaceOnUse" gradientTransform="translate(2.41152 46.8738) rotate(-3.00009) scale(71.6529 60.9042)">
      <stop stop-color="#FED576"/>
      <stop offset="0.2634" stop-color="#F47133"/>
      <stop offset="0.6091" stop-color="#BC3081"/>
      <stop offset="1" stop-color="#4C63D2"/>
    </radialGradient>
    <radialGradient id="paint1_radial_443_1385" cx="0" cy="0" r="1" gradientUnits="userSpaceOnUse" gradientTransform="translate(14.0289 37.0292) rotate(-3.00009) scale(36.7947 31.2751)">
      <stop stop-color="#FED576"/>
      <stop offset="0.2634" stop-color="#F47133"/>
      <stop offset="0.6091" stop-color="#BC3081"/>
      <stop offset="1" stop-color="#4C63D2"/>
    </radialGradient>
    <clipPath id="clip0_443_1385">
      <rect width="51.5753" height="51.5753" fill="white" transform="translate(0.381592 0.82196)"/>
    </clipPath>
  </defs>
</svg>