<svg width="427" height="131" viewBox="0 0 427 131" fill="none" xmlns="http://www.w3.org/2000/svg">
<g opacity="0.5">
<path d="M20.4055 88.3036C20.9473 95.8879 24.0171 101.847 29.4345 106.362C34.8519 110.876 42.0751 113.043 50.9235 113.043C58.5079 113.043 64.8282 111.418 69.5233 108.167C74.2184 104.917 76.7465 100.222 76.7465 94.2627C76.7465 90.1094 75.3018 86.8589 72.7737 84.3308C70.2456 81.8027 66.634 79.9969 62.3001 78.5523C57.7856 77.2882 51.4653 75.8436 43.5198 74.3989C35.2131 72.9543 28.1705 71.1485 22.3919 68.801C16.6134 66.4534 11.7377 62.8418 8.1261 57.9662C4.5145 53.2711 2.7087 46.9508 2.7087 39.0053C2.7087 31.7821 4.5145 25.4618 8.30668 19.6832C12.0989 14.0852 17.3357 9.75131 24.1977 6.50087C31.0598 3.43102 38.8247 1.8058 47.6731 1.8058C56.7021 1.8058 64.6476 3.6116 71.8708 6.86204C78.9134 10.2931 84.5114 14.9881 88.6648 20.7667C92.6375 26.7258 94.985 33.4073 95.3462 40.9916H74.9407C74.2184 34.4908 71.3291 29.254 66.4534 25.2812C61.3972 21.3084 55.2575 19.3221 47.6731 19.3221C40.2693 19.3221 34.3102 20.9473 29.9763 24.1977C25.6424 27.4482 23.4754 31.7821 23.4754 37.5606C23.4754 41.714 24.7395 44.9644 27.2676 47.3119C29.7957 49.8401 33.4073 51.6459 37.7412 52.7293C42.0751 53.9934 48.2148 55.2575 56.3409 56.7021C64.467 58.1467 71.5097 60.1331 77.4688 62.4807C83.2474 65.0088 88.123 68.4398 91.9152 73.1349C95.5268 77.8299 97.5132 84.1503 97.5132 91.7346C97.5132 99.319 95.5268 106 91.554 111.779C87.5813 117.738 81.9833 122.433 74.9407 125.684C67.7175 128.934 59.772 130.559 50.743 130.559C40.6305 130.559 31.9626 128.753 24.3783 125.142C16.7939 121.53 10.8348 116.655 6.50088 110.154C2.16696 103.653 0 96.2491 0 87.9424L20.4055 88.3036Z" fill="url(#paint0_linear_443_1428)"/>
<path d="M20.4055 88.3036C20.9473 95.8879 24.0171 101.847 29.4345 106.362C34.8519 110.876 42.0751 113.043 50.9235 113.043C58.5079 113.043 64.8282 111.418 69.5233 108.167C74.2184 104.917 76.7465 100.222 76.7465 94.2627C76.7465 90.1094 75.3018 86.8589 72.7737 84.3308C70.2456 81.8027 66.634 79.9969 62.3001 78.5523C57.7856 77.2882 51.4653 75.8436 43.5198 74.3989C35.2131 72.9543 28.1705 71.1485 22.3919 68.801C16.6134 66.4534 11.7377 62.8418 8.1261 57.9662C4.5145 53.2711 2.7087 46.9508 2.7087 39.0053C2.7087 31.7821 4.5145 25.4618 8.30668 19.6832C12.0989 14.0852 17.3357 9.75131 24.1977 6.50087C31.0598 3.43102 38.8247 1.8058 47.6731 1.8058C56.7021 1.8058 64.6476 3.6116 71.8708 6.86204C78.9134 10.2931 84.5114 14.9881 88.6648 20.7667C92.6375 26.7258 94.985 33.4073 95.3462 40.9916H74.9407C74.2184 34.4908 71.3291 29.254 66.4534 25.2812C61.3972 21.3084 55.2575 19.3221 47.6731 19.3221C40.2693 19.3221 34.3102 20.9473 29.9763 24.1977C25.6424 27.4482 23.4754 31.7821 23.4754 37.5606C23.4754 41.714 24.7395 44.9644 27.2676 47.3119C29.7957 49.8401 33.4073 51.6459 37.7412 52.7293C42.0751 53.9934 48.2148 55.2575 56.3409 56.7021C64.467 58.1467 71.5097 60.1331 77.4688 62.4807C83.2474 65.0088 88.123 68.4398 91.9152 73.1349C95.5268 77.8299 97.5132 84.1503 97.5132 91.7346C97.5132 99.319 95.5268 106 91.554 111.779C87.5813 117.738 81.9833 122.433 74.9407 125.684C67.7175 128.934 59.772 130.559 50.743 130.559C40.6305 130.559 31.9626 128.753 24.3783 125.142C16.7939 121.53 10.8348 116.655 6.50088 110.154C2.16696 103.653 0 96.2491 0 87.9424L20.4055 88.3036Z" fill="url(#paint1_radial_443_1428)"/>
<path d="M127.212 124.781C119.989 120.808 114.572 115.391 110.599 108.167C106.626 100.944 104.82 92.6375 104.82 83.2474C104.82 74.0378 106.626 65.9117 110.599 58.6885C114.572 51.4653 119.989 45.8673 127.212 41.8945C134.435 37.9218 142.562 35.9354 151.952 35.9354C161.161 35.9354 169.287 37.9218 176.511 41.8945C183.734 45.8673 189.151 51.4653 193.124 58.6885C197.097 65.9117 199.083 74.0378 199.083 83.2474C199.083 92.6375 197.097 100.944 193.124 108.167C189.151 115.391 183.734 120.808 176.511 124.781C169.287 128.753 161.161 130.559 151.952 130.559C142.562 130.559 134.435 128.753 127.212 124.781ZM171.635 105.459C176.691 99.6801 179.219 92.2763 179.219 83.2474C179.219 74.2184 176.691 66.9952 171.635 61.2166C166.579 55.438 160.078 52.5488 151.952 52.5488C143.645 52.5488 137.144 55.438 132.269 61.2166C127.212 66.9952 124.865 74.2184 124.865 83.2474C124.865 92.2763 127.212 99.6801 132.269 105.459C137.144 111.237 143.645 113.946 151.952 113.946C160.078 113.946 166.579 111.237 171.635 105.459Z" fill="url(#paint2_linear_443_1428)"/>
<path d="M127.212 124.781C119.989 120.808 114.572 115.391 110.599 108.167C106.626 100.944 104.82 92.6375 104.82 83.2474C104.82 74.0378 106.626 65.9117 110.599 58.6885C114.572 51.4653 119.989 45.8673 127.212 41.8945C134.435 37.9218 142.562 35.9354 151.952 35.9354C161.161 35.9354 169.287 37.9218 176.511 41.8945C183.734 45.8673 189.151 51.4653 193.124 58.6885C197.097 65.9117 199.083 74.0378 199.083 83.2474C199.083 92.6375 197.097 100.944 193.124 108.167C189.151 115.391 183.734 120.808 176.511 124.781C169.287 128.753 161.161 130.559 151.952 130.559C142.562 130.559 134.435 128.753 127.212 124.781ZM171.635 105.459C176.691 99.6801 179.219 92.2763 179.219 83.2474C179.219 74.2184 176.691 66.9952 171.635 61.2166C166.579 55.438 160.078 52.5488 151.952 52.5488C143.645 52.5488 137.144 55.438 132.269 61.2166C127.212 66.9952 124.865 74.2184 124.865 83.2474C124.865 92.2763 127.212 99.6801 132.269 105.459C137.144 111.237 143.645 113.946 151.952 113.946C160.078 113.946 166.579 111.237 171.635 105.459Z" fill="url(#paint3_radial_443_1428)"/>
<path d="M280.538 121.53C272.954 127.67 263.383 130.559 251.826 130.559C242.616 130.559 234.49 128.753 227.628 124.781C220.586 120.808 215.168 115.21 211.376 107.987C207.584 100.764 205.778 92.4569 205.778 83.0668C205.778 73.6766 207.584 65.5505 211.557 58.3273C215.349 51.2847 220.766 45.8673 227.809 41.8945C234.851 37.9218 242.977 35.9354 252.368 35.9354C263.925 35.9354 273.315 39.0053 280.719 45.145C287.942 51.2847 292.637 59.4108 294.443 69.8844H274.398C272.954 64.6476 270.426 60.4943 266.453 57.2438C262.48 54.174 257.604 52.5488 251.826 52.5488C243.88 52.5488 237.56 55.438 232.865 61.036C228.17 66.8146 225.822 74.0378 225.822 83.0668C225.822 92.2763 228.17 99.6801 232.865 105.459C237.56 111.237 243.88 113.946 251.826 113.946C257.785 113.946 262.841 112.501 266.814 109.251C270.787 106 273.315 101.667 274.579 96.2491H294.443C292.637 107.084 287.942 115.391 280.538 121.53Z" fill="url(#paint4_linear_443_1428)"/>
<path d="M280.538 121.53C272.954 127.67 263.383 130.559 251.826 130.559C242.616 130.559 234.49 128.753 227.628 124.781C220.586 120.808 215.168 115.21 211.376 107.987C207.584 100.764 205.778 92.4569 205.778 83.0668C205.778 73.6766 207.584 65.5505 211.557 58.3273C215.349 51.2847 220.766 45.8673 227.809 41.8945C234.851 37.9218 242.977 35.9354 252.368 35.9354C263.925 35.9354 273.315 39.0053 280.719 45.145C287.942 51.2847 292.637 59.4108 294.443 69.8844H274.398C272.954 64.6476 270.426 60.4943 266.453 57.2438C262.48 54.174 257.604 52.5488 251.826 52.5488C243.88 52.5488 237.56 55.438 232.865 61.036C228.17 66.8146 225.822 74.0378 225.822 83.0668C225.822 92.2763 228.17 99.6801 232.865 105.459C237.56 111.237 243.88 113.946 251.826 113.946C257.785 113.946 262.841 112.501 266.814 109.251C270.787 106 273.315 101.667 274.579 96.2491H294.443C292.637 107.084 287.942 115.391 280.538 121.53Z" fill="url(#paint5_radial_443_1428)"/>
<path d="M322.762 3.43102C324.929 5.59797 326.193 8.48726 326.193 11.7377C326.193 15.1687 324.929 18.058 322.762 20.225C320.415 22.3919 317.525 23.4754 314.275 23.4754C310.844 23.4754 307.955 22.3919 305.788 20.225C303.44 18.058 302.357 15.1687 302.357 11.7377C302.357 8.48726 303.44 5.59797 305.788 3.43102C307.955 1.26405 310.844 0 314.275 0C317.525 0 320.415 1.26405 322.762 3.43102ZM304.524 37.0189H324.026V129.476H304.524V37.0189Z" fill="url(#paint6_linear_443_1428)"/>
<path d="M322.762 3.43102C324.929 5.59797 326.193 8.48726 326.193 11.7377C326.193 15.1687 324.929 18.058 322.762 20.225C320.415 22.3919 317.525 23.4754 314.275 23.4754C310.844 23.4754 307.955 22.3919 305.788 20.225C303.44 18.058 302.357 15.1687 302.357 11.7377C302.357 8.48726 303.44 5.59797 305.788 3.43102C307.955 1.26405 310.844 0 314.275 0C317.525 0 320.415 1.26405 322.762 3.43102ZM304.524 37.0189H324.026V129.476H304.524V37.0189Z" fill="url(#paint7_radial_443_1428)"/>
<path d="M426.072 112.501V129.476H415.778C409.639 129.476 405.305 128.212 402.777 125.684C400.068 123.156 398.804 119.544 398.804 114.668C391.761 125.322 381.649 130.559 368.286 130.559C357.812 130.559 349.506 128.212 343.366 123.336C337.046 118.641 333.976 111.96 333.976 103.472C333.976 94.0821 337.226 86.6784 344.088 81.6221C350.77 76.5659 360.521 73.8572 373.523 73.8572H396.818V68.2592C396.818 63.203 395.012 59.0496 391.4 56.1604C387.789 53.2711 382.732 51.6459 376.412 51.6459C370.633 51.6459 365.938 52.9099 362.327 55.438C358.715 57.9662 356.548 61.2166 355.826 65.1894H336.684C337.587 55.9798 341.741 48.7566 348.964 43.7003C356.187 38.6441 365.577 35.9354 377.315 35.9354C389.594 35.9354 399.165 38.8247 406.027 44.6032C412.709 50.3818 416.14 58.6885 416.14 69.5233V106C416.14 110.334 418.126 112.501 422.279 112.501H426.072ZM396.818 88.3036H372.62C366.48 88.3036 361.966 89.5677 358.715 91.9152C355.465 94.2627 353.84 97.6937 353.84 102.208C353.84 106.181 355.284 109.431 358.354 111.779C361.424 114.307 365.577 115.391 370.995 115.391C378.94 115.391 385.26 113.224 389.775 108.89C394.289 104.556 396.637 98.7772 396.818 91.554V88.3036Z" fill="url(#paint8_linear_443_1428)"/>
<path d="M426.072 112.501V129.476H415.778C409.639 129.476 405.305 128.212 402.777 125.684C400.068 123.156 398.804 119.544 398.804 114.668C391.761 125.322 381.649 130.559 368.286 130.559C357.812 130.559 349.506 128.212 343.366 123.336C337.046 118.641 333.976 111.96 333.976 103.472C333.976 94.0821 337.226 86.6784 344.088 81.6221C350.77 76.5659 360.521 73.8572 373.523 73.8572H396.818V68.2592C396.818 63.203 395.012 59.0496 391.4 56.1604C387.789 53.2711 382.732 51.6459 376.412 51.6459C370.633 51.6459 365.938 52.9099 362.327 55.438C358.715 57.9662 356.548 61.2166 355.826 65.1894H336.684C337.587 55.9798 341.741 48.7566 348.964 43.7003C356.187 38.6441 365.577 35.9354 377.315 35.9354C389.594 35.9354 399.165 38.8247 406.027 44.6032C412.709 50.3818 416.14 58.6885 416.14 69.5233V106C416.14 110.334 418.126 112.501 422.279 112.501H426.072ZM396.818 88.3036H372.62C366.48 88.3036 361.966 89.5677 358.715 91.9152C355.465 94.2627 353.84 97.6937 353.84 102.208C353.84 106.181 355.284 109.431 358.354 111.779C361.424 114.307 365.577 115.391 370.995 115.391C378.94 115.391 385.26 113.224 389.775 108.89C394.289 104.556 396.637 98.7772 396.818 91.554V88.3036Z" fill="url(#paint9_radial_443_1428)"/>
</g>
<defs>
<linearGradient id="paint0_linear_443_1428" x1="210.131" y1="-33.5242" x2="210.131" y2="56.9758" gradientUnits="userSpaceOnUse">
<stop stop-color="white"/>
<stop offset="0.065" stop-color="#001AFF"/>
<stop offset="1" stop-color="#0019FF"/>
</linearGradient>
<radialGradient id="paint1_radial_443_1428" cx="0" cy="0" r="1" gradientUnits="userSpaceOnUse" gradientTransform="translate(240.893 37.4835) rotate(105.625) scale(114.213 379.35)">
<stop stop-color="white"/>
<stop offset="1" stop-color="white" stop-opacity="0"/>
</radialGradient>
<linearGradient id="paint2_linear_443_1428" x1="210.131" y1="-33.5242" x2="210.131" y2="56.9758" gradientUnits="userSpaceOnUse">
<stop stop-color="white"/>
<stop offset="0.065" stop-color="#001AFF"/>
<stop offset="1" stop-color="#0019FF"/>
</linearGradient>
<radialGradient id="paint3_radial_443_1428" cx="0" cy="0" r="1" gradientUnits="userSpaceOnUse" gradientTransform="translate(240.893 37.4835) rotate(105.625) scale(114.213 379.35)">
<stop stop-color="white"/>
<stop offset="1" stop-color="white" stop-opacity="0"/>
</radialGradient>
<linearGradient id="paint4_linear_443_1428" x1="210.131" y1="-33.5242" x2="210.131" y2="56.9758" gradientUnits="userSpaceOnUse">
<stop stop-color="white"/>
<stop offset="0.065" stop-color="#001AFF"/>
<stop offset="1" stop-color="#0019FF"/>
</linearGradient>
<radialGradient id="paint5_radial_443_1428" cx="0" cy="0" r="1" gradientUnits="userSpaceOnUse" gradientTransform="translate(240.893 37.4835) rotate(105.625) scale(114.213 379.35)">
<stop stop-color="white"/>
<stop offset="1" stop-color="white" stop-opacity="0"/>
</radialGradient>
<linearGradient id="paint6_linear_443_1428" x1="210.131" y1="-33.5242" x2="210.131" y2="56.9758" gradientUnits="userSpaceOnUse">
<stop stop-color="white"/>
<stop offset="0.065" stop-color="#001AFF"/>
<stop offset="1" stop-color="#0019FF"/>
</linearGradient>
<radialGradient id="paint7_radial_443_1428" cx="0" cy="0" r="1" gradientUnits="userSpaceOnUse" gradientTransform="translate(240.893 37.4835) rotate(105.625) scale(114.213 379.35)">
<stop stop-color="white"/>
<stop offset="1" stop-color="white" stop-opacity="0"/>
</radialGradient>
<linearGradient id="paint8_linear_443_1428" x1="210.131" y1="-33.5242" x2="210.131" y2="56.9758" gradientUnits="userSpaceOnUse">
<stop stop-color="white"/>
<stop offset="0.065" stop-color="#001AFF"/>
<stop offset="1" stop-color="#0019FF"/>
</linearGradient>
<radialGradient id="paint9_radial_443_1428" cx="0" cy="0" r="1" gradientUnits="userSpaceOnUse" gradientTransform="translate(240.893 37.4835) rotate(105.625) scale(114.213 379.35)">
<stop stop-color="white"/>
<stop offset="1" stop-color="white" stop-opacity="0"/>
</radialGradient>
</defs>
</svg>
