<svg xmlns="http://www.w3.org/2000/svg" width="51" height="51" viewBox="0 0 51 51" fill="none">
  <g clip-path="url(#clip0_443_1416)">
    <path d="M25.8945 0.904236C12.1696 0.904236 1.04272 12.0308 1.04272 25.7557C1.04272 39.4813 12.1696 50.607 25.8945 50.607C39.621 50.607 50.7467 39.4813 50.7467 25.7557C50.7467 12.0317 39.621 0.905423 25.8942 0.905423L25.8945 0.904236ZM37.2914 36.7473C36.8463 37.4773 35.8907 37.7088 35.1607 37.2607C29.3257 33.6965 21.9802 32.8893 13.3296 34.8658C12.496 35.0557 11.6651 34.5334 11.4751 33.6995C11.2843 32.8656 11.8045 32.0347 12.6402 31.8447C22.107 29.681 30.2273 30.6132 36.778 34.6165C37.5081 35.0646 37.7395 36.0172 37.2914 36.7473ZM40.3332 29.9796C39.7724 30.8921 38.5794 31.18 37.6683 30.6191C30.9882 26.5122 20.8054 25.3231 12.904 27.7215C11.8793 28.031 10.797 27.4535 10.486 26.4306C10.1774 25.4059 10.7552 24.3257 11.7781 24.014C20.8036 21.2755 32.0239 22.6021 39.6952 27.3161C40.6063 27.877 40.8941 29.0697 40.3332 29.9796ZM40.5944 22.9332C32.5848 18.1758 19.3699 17.7384 11.7226 20.0594C10.4946 20.4318 9.19599 19.7386 8.82385 18.5106C8.45171 17.282 9.14435 15.9842 10.3732 15.6109C19.1518 12.946 33.7451 13.4609 42.9667 18.9352C44.0736 19.5908 44.4357 21.0173 43.7798 22.1204C43.127 23.225 41.6966 23.5891 40.5956 22.9332H40.5944Z" fill="#1ED760"/>
  </g>
  <defs>
    <clipPath id="clip0_443_1416">
      <rect width="49.8562" height="49.8562" fill="white" transform="translate(0.967773 0.82196)"/>
    </clipPath>
  </defs>
</svg>