<svg xmlns="http://www.w3.org/2000/svg" width="53" height="53" viewBox="0 0 53 53" fill="none">
  <g clip-path="url(#clip0_443_1420)">
    <path d="M26.5548 52.3973C40.7969 52.3973 52.3424 40.8518 52.3424 26.6096C52.3424 12.3675 40.7969 0.82196 26.5548 0.82196C12.3126 0.82196 0.76709 12.3675 0.76709 26.6096C0.76709 40.8518 12.3126 52.3973 26.5548 52.3973Z" fill="url(#paint0_linear_443_1420)"/>
    <path d="M18.2229 28.4949L21.2824 36.9631C21.2824 36.9631 21.6649 37.7554 22.0745 37.7554C22.4841 37.7554 28.5762 31.4177 28.5762 31.4177L35.3509 18.3326L18.3321 26.3089L18.2229 28.4949Z" fill="#C8DAEA"/>
    <path d="M22.2795 30.6667L21.6922 36.9086C21.6922 36.9086 21.4463 38.8212 23.3585 36.9086C25.2706 34.996 27.1009 33.5212 27.1009 33.5212" fill="#A9C6D8"/>
    <path d="M18.2782 28.7973L11.9848 26.7467C11.9848 26.7467 11.2326 26.4416 11.4748 25.7496C11.5247 25.6069 11.6252 25.4855 11.9261 25.2768C13.3206 24.3048 37.7365 15.5291 37.7365 15.5291C37.7365 15.5291 38.4259 15.2968 38.8325 15.4513C38.9331 15.4824 39.0236 15.5397 39.0948 15.6173C39.166 15.6949 39.2152 15.79 39.2376 15.8929C39.2815 16.0746 39.2999 16.2616 39.2922 16.4484C39.2903 16.61 39.2707 16.7598 39.2559 16.9947C39.1072 19.394 34.6571 37.301 34.6571 37.301C34.6571 37.301 34.3908 38.3488 33.4369 38.3847C33.2024 38.3923 32.9689 38.3526 32.7501 38.2679C32.5314 38.1833 32.3319 38.0555 32.1636 37.8921C30.2916 36.2819 23.8215 31.9337 22.3918 30.9774C22.3596 30.9554 22.3324 30.9268 22.3122 30.8934C22.2919 30.8601 22.2791 30.8227 22.2745 30.784C22.2545 30.6832 22.3641 30.5583 22.3641 30.5583C22.3641 30.5583 33.6303 20.5441 33.9301 19.4929C33.9533 19.4114 33.8656 19.3712 33.7478 19.4069C32.9996 19.6822 20.0279 27.8739 18.5963 28.7779C18.4932 28.8091 18.3843 28.8157 18.2782 28.7973Z" fill="white"/>
  </g>
  <defs>
    <linearGradient id="paint0_linear_443_1420" x1="26.5548" y1="52.3973" x2="26.5548" y2="0.82196" gradientUnits="userSpaceOnUse">
      <stop stop-color="#1D93D2"/>
      <stop offset="1" stop-color="#38B0E3"/>
    </linearGradient>
    <clipPath id="clip0_443_1420">
      <rect width="51.5753" height="51.5753" fill="white" transform="translate(0.76709 0.82196)"/>
    </clipPath>
  </defs>
</svg>