<svg xmlns="http://www.w3.org/2000/svg" width="46" height="53" viewBox="0 0 46 53" fill="none">
  <path d="M35.188 24.7261C34.9658 24.6197 34.7402 24.5172 34.5116 24.419C34.1135 17.0838 30.1054 12.8844 23.3753 12.8414C23.3448 12.8412 23.3145 12.8412 23.284 12.8412C19.2585 12.8412 15.9106 14.5595 13.85 17.6862L17.5513 20.2252C19.0907 17.8897 21.5066 17.3918 23.2858 17.3918C23.3063 17.3918 23.327 17.3918 23.3473 17.392C25.5633 17.4061 27.2354 18.0504 28.3177 19.3069C29.1053 20.2216 29.6321 21.4857 29.8929 23.081C27.9282 22.747 25.8034 22.6444 23.5319 22.7746C17.1333 23.1432 13.0197 26.875 13.296 32.0605C13.4362 34.6908 14.7466 36.9537 16.9856 38.4319C18.8787 39.6816 21.3169 40.2927 23.8509 40.1543C27.1973 39.9709 29.8225 38.6941 31.654 36.3595C33.0449 34.5866 33.9246 32.2891 34.3131 29.3942C35.9079 30.3566 37.0898 31.6232 37.7426 33.1457C38.8525 35.7339 38.9172 39.987 35.4469 43.4543C32.4064 46.4919 28.7515 47.806 23.228 47.8466C17.1009 47.8012 12.4671 45.8362 9.45432 42.0062C6.63309 38.4198 5.17507 33.2397 5.12067 26.6096C5.17507 19.9795 6.63309 14.7993 9.45432 11.213C12.4671 7.38302 17.1008 5.41808 23.2279 5.37254C29.3994 5.41842 34.114 7.39282 37.2421 11.2413C38.7759 13.1285 39.9324 15.5018 40.6947 18.269L45.0321 17.1118C44.1081 13.7056 42.654 10.7705 40.6754 8.33638C36.6651 3.40252 30.8 0.874381 23.243 0.82196H23.2128C15.6712 0.874199 9.87175 3.41196 5.97572 8.36467C2.50878 12.772 0.720435 18.9044 0.660344 26.5915L0.660156 26.6096L0.660344 26.6278C0.720435 34.3148 2.50878 40.4474 5.97572 44.8547C9.87175 49.8073 15.6712 52.3452 23.2128 52.3973H23.243C29.948 52.3508 34.6741 50.5954 38.5675 46.7055C43.6614 41.6164 43.508 35.2375 41.8291 31.3215C40.6246 28.5134 38.3282 26.2325 35.188 24.7261ZM23.6113 35.6103C20.8069 35.7683 17.8934 34.5095 17.7498 31.8134C17.6433 29.8143 19.1724 27.5837 23.7834 27.3179C24.3115 27.2875 24.8297 27.2726 25.3387 27.2726C27.0135 27.2726 28.5804 27.4353 30.0049 27.7467C29.4736 34.3822 26.357 35.4596 23.6113 35.6103Z" fill="white"/>
</svg>