<svg xmlns="http://www.w3.org/2000/svg" width="63" height="44" viewBox="0 0 63 44" fill="none">
  <path d="M60.9306 6.97213C60.223 4.32888 58.1458 2.25166 55.5025 1.5441C50.7163 0.260376 31.5161 0.260376 31.5161 0.260376C31.5161 0.260376 12.3159 0.260376 7.52968 1.5441C4.8915 2.25166 2.80923 4.32888 2.10167 6.97213C0.822997 11.7583 0.822998 21.7501 0.822998 21.7501C0.822998 21.7501 0.822995 31.742 2.10672 36.5282C2.81428 39.1714 4.8915 41.2486 7.53476 41.956C12.3209 43.2398 31.5211 43.2398 31.5211 43.2398C31.5211 43.2398 50.7215 43.2398 55.5075 41.956C58.1509 41.2486 60.2281 39.1714 60.9356 36.5282C62.2194 31.742 62.2194 21.7501 62.2194 21.7501C62.2194 21.7501 62.2142 11.7583 60.9306 6.97213Z" fill="#FF0000"/>
  <path d="M25.3804 30.9592L41.3257 21.7509L25.3804 12.5424V30.9592Z" fill="white"/>
</svg>